<svg width="154" height="152" viewBox="0 0 154 152" fill="none" xmlns="http://www.w3.org/2000/svg">
<rect width="103.062" height="100.692" transform="translate(50.9385 51.3077)" fill="#47A5C9"/>
<path d="M154 51.9C116.003 51.9 130.929 51.9 102.469 51.9C74.0096 51.9 77.4846 51.9 50.9385 51.9C50.9385 23.4404 74.0096 0.369263 102.469 0.369263C130.929 0.369263 154 23.4404 154 51.9Z" fill="#47A5C9"/>
<path d="M50.9385 51.3077C50.9385 88.4316 50.9385 73.8484 50.9385 101.654C50.9385 129.459 50.9385 126.064 50.9385 152C22.8059 152 0 129.459 0 101.654C0 73.8484 22.8059 51.3077 50.9385 51.3077Z" fill="#09202E"/>
<path d="M51 67C51 92.4394 51 82.4462 51 101.5C51 120.554 51 118.227 51 136C31.67 136 16 120.554 16 101.5C16 82.4462 31.67 67 51 67Z" fill="#47A5C9"/>
<path d="M93.6934 80.6833C95.3728 75.7686 102.163 75.6198 104.155 80.2367L104.323 80.6861L106.589 87.3138C107.109 88.8338 107.948 90.2247 109.051 91.3928C110.153 92.5608 111.494 93.4788 112.981 94.0848L113.591 94.3123L120.218 96.5758C125.133 98.2552 125.282 105.046 120.668 107.037L120.218 107.206L113.591 109.472C112.07 109.991 110.679 110.83 109.51 111.933C108.342 113.035 107.423 114.376 106.817 115.864L106.589 116.47L104.326 123.101C102.646 128.016 95.8558 128.164 93.8675 123.55L93.6934 123.101L91.4298 116.473C90.9108 114.953 90.0716 113.561 88.969 112.393C87.8663 111.224 86.5258 110.306 85.038 109.699L84.4314 109.472L77.8036 107.208C72.8861 105.529 72.7373 98.7383 77.3543 96.75L77.8036 96.5758L84.4314 94.3123C85.9513 93.7929 87.3423 92.9536 88.5103 91.851C89.6783 90.7483 90.5963 89.408 91.2023 87.9204L91.4298 87.3138L93.6934 80.6833ZM121.477 71C122.002 71 122.517 71.1474 122.963 71.4254C123.408 71.7034 123.767 72.1009 123.999 72.5727L124.133 72.9013L125.116 75.7827L128 76.7656C128.527 76.9445 128.989 77.2756 129.327 77.7171C129.665 78.1586 129.864 78.6905 129.9 79.2454C129.935 79.8004 129.805 80.3534 129.526 80.8343C129.247 81.3153 128.831 81.7025 128.332 81.947L128 82.0818L125.119 83.0648L124.136 85.949C123.957 86.4753 123.625 86.9367 123.184 87.2745C122.742 87.6123 122.21 87.8115 121.655 87.8466C121.1 87.8818 120.548 87.7515 120.067 87.4722C119.586 87.1928 119.199 86.7771 118.955 86.2775L118.82 85.949L117.837 83.0676L114.953 82.0846C114.426 81.9058 113.965 81.5746 113.627 81.1331C113.288 80.6916 113.089 80.1597 113.053 79.6048C113.018 79.0499 113.148 78.4969 113.427 78.0159C113.706 77.535 114.122 77.1477 114.621 76.9032L114.953 76.7684L117.834 75.7855L118.817 72.9013C119.006 72.3464 119.365 71.8647 119.842 71.5238C120.319 71.1828 120.89 70.9996 121.477 71Z" fill="white"/>
</svg>
